<svg width="1678" height="1683" viewBox="0 0 1678 1683" fill="none" xmlns="http://www.w3.org/2000/svg">
<path d="M608.591 62.7004L1013.45 1075.63C1013.71 1076.29 1013.23 1077 1012.52 1077H668.671C668.265 1077 667.9 1076.75 667.746 1076.38L455.105 556.878C450.158 543.677 411.5 441.339 411.5 433.458C406.553 433.458 417 478.908 417 490.458L432.844 1596.96C432.844 1615.11 429.547 1628.31 422.951 1636.56C414.706 1643.16 400.69 1646.46 380.903 1646.46H61.8349C40.3988 1646.46 24.7339 1642.33 14.8404 1634.08C4.94672 1624.18 -0.000183105 1608.51 -0.000183105 1587.06V44.5502C-0.000183105 14.8501 12.3668 0 37.1008 0L464.31 0.82518C558.5 -0.000244081 583.5 0 608.591 62.7004Z" fill="#55E67B"/>
<path d="M1075.52 62.6099L667.986 1076.04C667.722 1076.7 668.205 1077.41 668.914 1077.41H1013.64C1014.04 1077.41 1014.41 1077.17 1014.56 1076.8L1227.47 563.026C1235.5 540 1233 546.5 1249.5 502.5V560.565V1633.23V1682.46H1300.92H1616.78C1638.01 1682.46 1653.51 1678.36 1663.31 1670.15C1673.1 1660.31 1678 1644.72 1678 1623.39V44.5611C1678 15.0269 1665.76 0.259766 1641.27 0.259766L1218.35 1.08034C1146.5 1.08034 1095 -11.0417 1075.52 62.6099Z" fill="#159939"/>
<path d="M0.563477 48.0222C0.563477 16.8473 13.7205 1.25977 40.0347 1.25977H432.28C432.28 39.458 432.28 16.0269 432.28 45.5611V1275.43C432.28 1286.92 433.924 1295.12 437.214 1300.04C442.148 1304.97 449.548 1307.43 459.416 1307.43H1249.66C1249.66 1339.96 1249.66 1319.73 1249.66 1344.34V1638.16C1249.66 1651.28 1249.66 1663.46 1249.66 1682.46C1235.66 1682.46 1217.59 1682.46 1202.79 1682.46H54.8364C35.1008 1682.46 21.1214 1678.36 12.8982 1670.15C4.67506 1661.95 0.563477 1648.82 0.563477 1630.77V48.0222Z" fill="black"/>
</svg>
